<svg width="110" height="46" viewBox="0 0 110 46" fill="none" xmlns="http://www.w3.org/2000/svg">
<g clip-path="url(#clip0_55_262)">
<path d="M59.5318 0.00118666H23.0483C23.1045 1.29941 23.4604 2.5659 24.0872 3.69877C24.6924 4.71282 25.5478 5.54901 26.5687 6.12431C27.5896 6.69961 28.7407 6.99415 29.9081 6.97903H55.2611C55.3373 6.43659 55.6206 5.94661 56.0499 5.61477C56.4792 5.28294 57.0199 5.13587 57.5549 5.20583L57.9775 5.23157C59.6562 5.23157 61.4363 5.20976 62.5652 5.29744C76.6035 6.39553 78.7066 21.6604 78.7066 21.6604H82.268C82.268 13.9351 75.2863 6.48446 75.2863 6.48446C68.6595 -0.24822 59.5318 0.00118666 59.5318 0.00118666Z" fill="#C71920"/>
<path d="M50.6613 20.1133C49.8515 20.1281 49.0751 20.4438 48.4789 21.0006C47.8827 21.5575 47.508 22.317 47.4258 23.1355C47.3841 23.5203 47.4237 23.9098 47.5419 24.2779C47.6601 24.646 47.8541 24.9841 48.1112 25.27C48.3682 25.5559 48.6823 25.7829 49.0326 25.9358C49.3828 26.0887 49.761 26.1641 50.1422 26.1568C50.9519 26.1419 51.7283 25.8264 52.3246 25.2697C52.9208 24.713 53.2957 23.9538 53.3783 23.1355C53.42 22.7505 53.3804 22.3609 53.2622 21.9928C53.144 21.6246 52.9498 21.2863 52.6927 21.0003C52.4356 20.7144 52.1215 20.4871 51.7712 20.3342C51.4209 20.1813 51.0425 20.106 50.6613 20.1133Z" fill="#C71920"/>
<path d="M67.8126 23.1355C67.7709 23.5203 67.8105 23.9098 67.9287 24.2779C68.0469 24.646 68.241 24.9841 68.498 25.27C68.7551 25.5559 69.0692 25.7829 69.4194 25.9358C69.7696 26.0887 70.1479 26.164 70.529 26.1568C71.3388 26.142 72.1152 25.8264 72.7115 25.2697C73.3078 24.713 73.6826 23.9538 73.7651 23.1355C73.8068 22.7506 73.7672 22.3609 73.649 21.9927C73.5309 21.6246 73.3368 21.2863 73.0798 21.0003C72.8227 20.7144 72.5086 20.4875 72.1584 20.3345C71.8082 20.1815 71.4299 20.1061 71.0487 20.1133C70.2388 20.1279 69.4622 20.4434 68.8659 21.0003C68.2696 21.5572 67.8949 22.3169 67.8126 23.1355Z" fill="#C71920"/>
<path d="M66.6766 21.5089C66.9532 20.5671 67.5176 19.739 68.288 19.1444C69.0584 18.5498 69.995 18.2195 70.9624 18.2011C71.8764 18.1826 72.7641 18.5115 73.4516 19.1235C74.139 19.7354 74.5766 20.5862 74.6785 21.5089H77.3242C74.9881 10.2164 67.8706 7.47532 65.3721 6.69849C64.2512 6.34718 63.0851 6.16677 61.912 6.16321H58.12V6.6922H63.4205V7.47956H58.12V8.00916H63.4205V8.79651H58.12V9.32611H63.4042C63.3654 9.50348 63.2707 9.66325 63.1346 9.78116C62.9985 9.89907 62.8283 9.96867 62.6497 9.97965L57.5791 10.282C57.3054 10.32 57.027 10.301 56.7608 10.226C56.4946 10.1511 56.2463 10.0218 56.0309 9.84612C55.8156 9.67043 55.6377 9.4521 55.5083 9.20426C55.3788 8.95642 55.3005 8.68426 55.278 8.40463V8.16423L55.2013 8.2256H29.3117C29.3334 8.36724 29.3582 8.50655 29.3853 8.64144C29.732 10.2437 30.6108 11.6761 31.8741 12.6983C33.1375 13.7204 34.7085 14.27 36.3236 14.255H61.5203C61.8891 13.0674 63.3312 12.1804 65.0637 12.1804C67.0726 12.1804 68.7012 13.3753 68.7012 14.8499C68.7012 16.3244 67.0714 17.5194 65.0637 17.5194C63.2853 17.5194 61.8076 16.5824 61.4913 15.3439H37.2061C37.4023 18.4738 38.9646 20.0197 40.3723 20.7787C41.3096 21.2695 42.3511 21.5194 43.4056 21.5065H46.4841C46.7608 20.5647 47.3251 19.7366 48.0955 19.142C48.866 18.5474 49.8026 18.2171 50.77 18.1987C51.6839 18.1802 52.5717 18.5091 53.2591 19.1211C53.9466 19.733 54.3842 20.5838 54.486 21.5065L66.6766 21.5089Z" fill="#C71920"/>
<path d="M0 45.7206H4.3583V39.919H10.5758V36.2145H4.3583V34.3751H11.4692V30.6243H0V45.7206Z" fill="#C71920"/>
<path d="M48.528 34.8172C48.2002 34.4024 47.7791 34.0736 47.3 33.8586C46.821 33.6436 46.2981 33.5489 45.7754 33.582C45.0458 33.5498 44.319 33.6922 43.6535 33.9978C42.9881 34.3035 42.4028 34.7637 41.9447 35.3414C40.9808 36.6085 40.4856 38.1793 40.5455 39.7794C40.4838 41.3691 40.9616 42.9319 41.8988 44.2065C42.3401 44.779 42.9097 45.2361 43.56 45.54C44.2103 45.8438 44.9227 45.9856 45.6378 45.9534C46.2583 45.9484 46.8724 45.826 47.4487 45.5924C47.7336 45.4898 47.9957 45.3308 48.22 45.125C48.4443 44.9192 48.6263 44.6706 48.7556 44.3931V45.7211H52.7034V30.3931H48.5286L48.528 34.8172ZM48.0228 41.5391C47.8654 41.7528 47.6611 41.9262 47.4262 42.0457C47.1913 42.1651 46.9322 42.2274 46.6694 42.2274C46.4067 42.2274 46.1476 42.1651 45.9126 42.0457C45.6777 41.9262 45.4734 41.7528 45.3161 41.5391C44.9485 41.0307 44.7624 40.4102 44.7885 39.78C44.7638 39.1463 44.9496 38.5226 45.3161 38.0092C45.4715 37.7927 45.6751 37.6166 45.9103 37.4951C46.1455 37.3737 46.4056 37.3104 46.6694 37.3104C46.9333 37.3104 47.1933 37.3737 47.4285 37.4951C47.6637 37.6166 47.8673 37.7927 48.0228 38.0092C48.3899 38.5223 48.576 39.1462 48.551 39.78C48.577 40.4103 48.3907 41.0309 48.0228 41.5391Z" fill="#C71920"/>
<path d="M62.634 41.9933C62.1624 42.0083 61.6931 41.9204 61.2579 41.7355C60.8226 41.5507 60.4314 41.273 60.1107 40.9215C59.4403 40.1719 59.0861 39.185 59.1244 38.173C59.1087 37.6761 59.1909 37.1812 59.3662 36.7171C59.5415 36.253 59.8063 35.8289 60.1451 35.4702C60.4631 35.1247 60.8489 34.8508 61.2776 34.6661C61.7063 34.4814 62.1684 34.3903 62.634 34.3982C63.127 34.4019 63.614 34.5092 64.0641 34.7137C64.5142 34.9182 64.9176 35.2155 65.249 35.5864L68.1163 32.5818C66.5546 31.1635 64.5309 30.3834 62.436 30.3919C60.3411 30.4004 58.3236 31.197 56.7732 32.6279C55.3672 34.1279 54.5829 36.1195 54.5829 38.1906C54.5829 40.2617 55.3672 42.2537 56.7732 43.7536C57.517 44.504 58.4049 45.0907 59.3816 45.4774C60.3583 45.8641 61.4029 46.0425 62.4505 46.0013C63.5953 46.0511 64.737 45.8454 65.7952 45.3987C66.8533 44.952 67.8022 44.275 68.575 43.4156L65.7983 40.3165C65.4465 40.838 64.9739 41.2635 64.4222 41.5559C63.8704 41.8483 63.2563 41.9986 62.634 41.9933Z" fill="#C71920"/>
<path d="M81.1628 36.1213C81.0296 35.6458 80.8038 35.2024 80.4988 34.8172C80.1633 34.4369 79.7478 34.1384 79.283 33.9436C78.6916 33.6894 78.0537 33.5662 77.4117 33.582C76.8013 33.5478 76.1908 33.6465 75.621 33.8718C75.0513 34.097 74.5356 34.4435 74.1086 34.8878V30.39H69.9338V45.718H74.1086V40.1035C74.0789 39.4455 74.26 38.7954 74.6247 38.2507C74.7835 38.0229 74.9956 37.8386 75.2418 37.7145C75.488 37.5905 75.7607 37.5308 76.0354 37.5403C76.9071 37.5403 77.3429 38.2316 77.3429 39.6144V45.7186H81.5177V39.0785C81.5177 38.5038 81.4986 37.9989 81.4604 37.5639C81.4108 37.0739 81.311 36.5903 81.1628 36.1213Z" fill="#C71920"/>
<path d="M91.1615 41.5389C90.9685 41.7551 90.7331 41.9281 90.4704 42.0463C90.2077 42.1646 89.9235 42.2257 89.6361 42.2257C89.3488 42.2257 89.0646 42.1646 88.8019 42.0463C88.5392 41.9281 88.3037 41.7551 88.1107 41.5389C87.8224 41.194 87.6352 40.7738 87.5705 40.3261C85.7257 40.1808 84.2504 40.0239 83.3112 39.9136C83.3139 40.7097 83.4765 41.4968 83.7892 42.2268C84.1018 42.9569 84.5578 43.6145 85.1293 44.1593C86.3557 45.3126 87.9654 45.9535 89.6367 45.9535C91.308 45.9535 92.9178 45.3126 94.1441 44.1593C95.1047 43.2422 95.7249 42.017 95.9001 40.6899C94.4103 40.6782 92.9803 40.6365 91.6426 40.577C91.5576 40.9311 91.393 41.2603 91.1615 41.5389Z" fill="#C71920"/>
<path d="M88.1222 38.0086C88.3108 37.7892 88.5436 37.6133 88.8047 37.4928C89.0658 37.3723 89.3493 37.3099 89.6361 37.3099C89.9229 37.3099 90.2064 37.3723 90.4675 37.4928C90.7287 37.6133 90.9614 37.7892 91.15 38.0086C91.3796 38.2843 91.5447 38.6091 91.633 38.9588C92.9718 38.8975 94.4031 38.8564 95.8953 38.8447C95.7195 37.5184 95.1004 36.2939 94.1417 35.3759C92.9153 34.2226 91.3056 33.582 89.6343 33.582C87.963 33.582 86.3533 34.2226 85.1269 35.3759C84.5566 35.9216 84.1015 36.5794 83.7891 37.3093C83.4768 38.0391 83.3138 38.8258 83.3099 39.6216C84.251 39.5107 85.7275 39.3538 87.5747 39.2091C87.6445 38.7653 87.834 38.3497 88.1222 38.0086Z" fill="#C71920"/>
<path d="M102.159 38.0086C102.348 37.7891 102.581 37.613 102.842 37.4925C103.103 37.3719 103.386 37.3096 103.673 37.3096C103.96 37.3096 104.244 37.3719 104.505 37.4925C104.766 37.613 104.999 37.7891 105.187 38.0086C105.472 38.3481 105.66 38.7605 105.73 39.201C107.562 39.342 109.035 39.4977 109.996 39.6105C109.991 38.8167 109.828 38.0323 109.516 37.3045C109.203 36.5766 108.749 35.9205 108.181 35.3759C106.954 34.2226 105.345 33.582 103.673 33.582C102.002 33.582 100.392 34.2226 99.1658 35.3759C98.207 36.2934 97.5877 37.5176 97.4116 38.8436C98.9026 38.8546 100.335 38.8945 101.675 38.954C101.764 38.6059 101.93 38.2827 102.159 38.0086Z" fill="#C71920"/>
<path d="M105.739 40.3335C105.673 40.7784 105.487 41.196 105.2 41.5391C105.007 41.7553 104.772 41.928 104.509 42.0462C104.247 42.1645 103.962 42.2256 103.675 42.2256C103.388 42.2256 103.103 42.1645 102.841 42.0462C102.578 41.928 102.343 41.7553 102.15 41.5391C101.919 41.2615 101.755 40.9338 101.67 40.5814C100.331 40.6427 98.9008 40.6799 97.411 40.6904C97.5864 42.0176 98.2068 43.2431 99.1676 44.1601C100.395 45.3122 102.004 45.9519 103.675 45.9519C105.346 45.9519 106.955 45.3122 108.182 44.1601C108.752 43.6162 109.207 42.9603 109.52 42.2321C109.832 41.504 109.995 40.7188 109.999 39.9246C109.042 40.0374 107.569 40.1925 105.739 40.3335Z" fill="#C71920"/>
<path d="M19.9432 41.5389C19.7501 41.7551 19.5147 41.9281 19.252 42.0463C18.9893 42.1646 18.7051 42.2257 18.4177 42.2257C18.1304 42.2257 17.8462 42.1646 17.5835 42.0463C17.3208 41.9281 17.0854 41.7551 16.8923 41.5389C16.604 41.194 16.4168 40.7738 16.3521 40.3261C14.5073 40.1808 13.032 40.0239 12.0928 39.9136C12.0955 40.7097 12.2582 41.4968 12.5708 42.2268C12.8835 42.9569 13.3395 43.6144 13.9109 44.1593C15.1373 45.3126 16.7471 45.9535 18.4183 45.9535C20.0896 45.9535 21.6994 45.3126 22.9257 44.1593C23.8863 43.2422 24.5065 42.017 24.6817 40.6899C23.192 40.6782 21.7619 40.6365 20.4243 40.577C20.3393 40.9311 20.1746 41.2603 19.9432 41.5389Z" fill="#C71920"/>
<path d="M16.9038 38.0086C17.0925 37.7892 17.3252 37.6133 17.5863 37.4928C17.8474 37.3723 18.1309 37.3099 18.4177 37.3099C18.7045 37.3099 18.988 37.3723 19.2492 37.4928C19.5103 37.6133 19.743 37.7892 19.9317 38.0086C20.1612 38.2843 20.3263 38.6091 20.4146 38.9588C21.7535 38.8975 23.1847 38.8564 24.6769 38.8447C24.5012 37.5184 23.8821 36.2939 22.9233 35.3759C21.6969 34.2226 20.0872 33.582 18.4159 33.582C16.7446 33.582 15.1349 34.2226 13.9085 35.3759C13.3382 35.9216 12.8831 36.5794 12.5708 37.3093C12.2584 38.0391 12.0954 38.8258 12.0916 39.6216C13.0326 39.5107 14.5091 39.3538 16.3563 39.2091C16.4262 38.7653 16.6157 38.3497 16.9038 38.0086Z" fill="#C71920"/>
<path d="M31.221 38.0086C31.4096 37.7891 31.6423 37.613 31.9034 37.4925C32.1646 37.3719 32.4481 37.3096 32.7349 37.3096C33.0218 37.3096 33.3053 37.3719 33.5664 37.4925C33.8275 37.613 34.0602 37.7891 34.2489 38.0086C34.5341 38.348 34.722 38.7605 34.7921 39.201C36.6236 39.342 38.0965 39.4977 39.0581 39.6105C39.0529 38.8167 38.8894 38.0323 38.5773 37.3045C38.2652 36.5766 37.8111 35.9205 37.2423 35.3759C36.0159 34.2226 34.4062 33.582 32.7349 33.582C31.0636 33.582 29.4539 34.2226 28.2275 35.3759C27.2688 36.2935 26.6495 37.5176 26.4733 38.8436C27.9643 38.8546 29.3968 38.8945 30.7369 38.954C30.8262 38.6059 30.9916 38.2827 31.221 38.0086Z" fill="#C71920"/>
<path d="M34.2604 41.5391C34.0673 41.7553 33.8319 41.928 33.5692 42.0462C33.3065 42.1645 33.0223 42.2256 32.7349 42.2256C32.4476 42.2256 32.1634 42.1645 31.9007 42.0462C31.638 41.928 31.4026 41.7553 31.2095 41.5391C30.9793 41.2615 30.8151 40.9338 30.7296 40.5814C29.3908 40.6427 27.9607 40.6799 26.4709 40.6904C26.6464 42.0176 27.2667 43.2431 28.2275 44.1601C29.4545 45.3122 31.064 45.9519 32.7349 45.9519C34.4059 45.9519 36.0154 45.3122 37.2423 44.1601C37.8122 43.6162 38.2672 42.9603 38.5795 42.2321C38.8919 41.504 39.0551 40.7188 39.0593 39.9246C38.0989 40.0374 36.6278 40.1925 34.7988 40.3335C34.7332 40.7784 34.5468 41.196 34.2604 41.5391Z" fill="#C71920"/>
</g>
<defs>
<clipPath id="clip0_55_262">
<rect width="110" height="46" fill="white"/>
</clipPath>
</defs>
</svg>
